<svg xmlns="http://www.w3.org/2000/svg" xmlns:xlink="http://www.w3.org/1999/xlink" width="287.22" height="287.22" viewBox="0 0 287.22 287.22"><defs><clipPath id="a"><rect width="203.095" height="203.095" rx="50" transform="translate(1134 214)" fill="#855ca3" stroke="#707070" stroke-width="1"/></clipPath><filter id="b"><feOffset input="SourceAlpha"/><feGaussianBlur stdDeviation="5" result="c"/><feFlood flood-opacity="0.161" result="d"/><feComposite operator="out" in="SourceGraphic" in2="c"/><feComposite operator="in" in="d"/><feComposite operator="in" in2="SourceGraphic"/></filter><filter id="e"><feOffset input="SourceAlpha"/><feGaussianBlur stdDeviation="5" result="f"/><feFlood flood-opacity="0.161" result="g"/><feComposite operator="out" in="SourceGraphic" in2="f"/><feComposite operator="in" in="g"/><feComposite operator="in" in2="SourceGraphic"/></filter></defs><g transform="translate(-506.928 -953.18) rotate(45)" clip-path="url(#a)"><g transform="translate(1053.079 162.829)" fill="#855ca3" stroke="#707070" stroke-width="1"><rect width="404.604" height="302.263" stroke="none"/><rect x="0.5" y="0.5" width="403.604" height="301.263" fill="none"/></g><g data-type="innerShadowGroup"><path d="M1264.484,608.618c-2.952-3.591,2.545,3.716,0,0-36.441-53.215-39.5-126.277-39.5-126.277L1183.551,397.5c-10.359-21.211-51.3,13.812-51.3,13.812l51.3,80.9,21.7,90.761Z" transform="translate(-17.73 -203.382)" fill="#d4c1e2"/><g transform="matrix(0.71, -0.71, 0.71, 0.71, 1032.45, 315.55)" filter="url(#b)"><path d="M1264.484,608.618c-2.952-3.591,2.545,3.716,0,0-36.441-53.215-39.5-126.277-39.5-126.277L1183.551,397.5c-10.359-21.211-51.3,13.812-51.3,13.812l51.3,80.9,21.7,90.761Z" transform="translate(-375.65 -1109.53) rotate(45)" fill="#fff"/></g></g><g data-type="innerShadowGroup"><path d="M.694,217.941c2.952-3.591-2.545,3.716,0,0,36.441-53.215,39.5-126.277,39.5-126.277L81.627,6.822c10.359-21.211,51.3,13.812,51.3,13.812l-51.3,80.9-21.7,90.761Z" transform="translate(1249.986 221.657) rotate(13)" fill="#d4c1e2"/><g transform="matrix(0.71, -0.71, 0.71, 0.71, 1032.45, 315.55)" filter="url(#e)"><path d="M.694,217.941c2.952-3.591-2.545,3.716,0,0,36.441-53.215,39.5-126.277,39.5-126.277L81.627,6.822c10.359-21.211,51.3,13.812,51.3,13.812l-51.3,80.9-21.7,90.761Z" transform="matrix(0.53, 0.85, -0.85, 0.53, 220.21, 87.43)" fill="#fff"/></g></g></g></svg>